# xmcd
#
# Track frame offsets:
#	150
#	22467
#	37028
#	56356
#	76081
#	90054
#	105648
#	122296
#	139529
#	157227
#	175724
#	189458
#
# Disc length: 2726 seconds
#
# Revision: 1
# Processed by: cddbd v1.5.2PL0 Copyright (c) Steve Scherf et al.
# Submitted via: audiograbber 1.83.01
#
DISCID=8d0aa40c
DTITLE=Mike Bryant - If I Could Write A Song Mike Bryant
DYEAR=2006
DGENRE=Country
TTITLE0=If I Could Write A Song
TTITLE1=My Last Rodeo
TTITLE2=Holdin On
TTITLE3=If You´d Stop Loving Me
TTITLE4=That Dog Woun´t Hunt
TTITLE5=Please Dance This Last Dance
TTITLE6=Water Under The Bridge
TTITLE7=A Cowboy Hides His Pain
TTITLE8=A Single Yellow Rose
TTITLE9=Let´s Do It For The Chrildren
TTITLE10=I Felt The Hand Of The Man
TTITLE11=They Fight For The Right
EXTD=
EXTT0=
EXTT1=
EXTT2=
EXTT3=
EXTT4=
EXTT5=
EXTT6=
EXTT7=
EXTT8=
EXTT9=
EXTT10=
EXTT11=
PLAYORDER=
